<svg xmlns="http://www.w3.org/2000/svg" width="29" height="19" fill="none" viewBox="0 0 29 19" id="maestro">
  <path fill="#7375CF" d="M11.0898 2.64822H18.7132V16.3464H11.0898V2.64822Z"></path>
  <path fill="#EB001B" d="M11.5729 9.49813C11.5729 6.83551 12.8076 4.29493 14.8885 2.64823C11.1133 -0.328204 5.6185 0.324773 2.64208 4.12535C-0.310569 7.90056 0.342405 13.37 4.14298 16.348C7.31277 18.8411 11.7425 18.8411 14.9123 16.348C12.806 14.7029 11.5729 12.1607 11.5729 9.49813Z"></path>
  <path fill="#00A2E5" d="M28.9985 9.49813C28.9985 14.3146 25.1013 18.2103 20.2864 18.2103C18.3258 18.2103 16.4382 17.5574 14.9136 16.3464C18.6888 13.37 19.3433 7.90056 16.3653 4.09999C15.9295 3.56747 15.4461 3.05871 14.9136 2.64823C18.6888 -0.328204 24.1836 0.324773 27.1363 4.12535C28.3471 5.65001 29.0001 7.53762 29.0001 9.49813H28.9985Z"></path>
</svg>