<svg xmlns="http://www.w3.org/2000/svg" width="27" height="17" fill="none" viewBox="0 0 27 17" id="master-card">
  <path fill="#FF5F00" d="M9.56396 1.73307H16.6467V14.4599H9.56396V1.73307Z"></path>
  <path fill="#EB001B" d="M10.0128 8.09725C10.0128 5.62344 11.1599 3.26301 13.0933 1.73308C9.5858 -1.03229 4.48063 -0.425617 1.71526 3.10545C-1.02801 6.61296 -0.421336 11.6946 3.10974 14.4614C6.05475 16.7777 10.1704 16.7777 13.1154 14.4614C11.1584 12.933 10.0128 10.5711 10.0128 8.09725Z"></path>
  <path fill="#F79E1B" d="M26.2029 8.09725C26.2029 12.5722 22.582 16.1917 18.1085 16.1917C16.287 16.1917 14.5332 15.585 13.1167 14.4599C16.6242 11.6946 17.2324 6.61296 14.4655 3.08189C14.0606 2.58713 13.6115 2.11446 13.1167 1.73308C16.6242 -1.03229 21.7294 -0.425617 24.4727 3.10545C25.5977 4.522 26.2043 6.27576 26.2043 8.09725H26.2029Z"></path>
</svg>