<svg xmlns="http://www.w3.org/2000/svg" xml:space="preserve" width="64" height="64" id="western-union">
  <path fill="#FFDD12" d="M23.5 43.3H13.3L8.4 20.1h8.1l2.1 14.3 2.2-14.3h9.3l2.2 14.7 2.2-14.7h8l-4.9 23.2h-10l-2.1-15"></path>
  <path fill="#FFDD12" d="M23.5 43.3H13.3L8.4 20.1h8.1l2.1 14.3 2.2-14.3h9.3l2.2 14.7 2.2-14.7h8l-4.9 23.2h-10l-2.1-15"></path>
  <path fill="#FFC715" d="M19.2 41.5c.9.8 2.1 1.4 3.5 1.8h.8l2.1-15 2.1 15h10l4.9-23.1h-8l-2.2 14.6-2.1-14.6H21l-2.1 14.3-2.1-14.3v14.1c-.3 3.2.6 5.6 2.4 7.2z"></path>
  <path fill="#FFF315" d="M7.2 43.2H5.8L1 20.1h1.4"></path>
  <path fill="#FFDD12" d="M10.9 43.2H9.6L4.7 20.1h1.4"></path>
  <path d="M49.1 20.1v14.5c0 .9-.2 1.7-.6 2.2-.4.5-.9.8-1.5.8-.7 0-1.2-.3-1.6-.8-.4-.5-.5-1.3-.5-2.3V20.1h-1.7l-4.5 21.4c.8.7 1.8 1.3 3 1.6 1.4.5 3.2.7 5.4.7 3.7 0 6.5-.8 8.3-2.3 1.8-1.6 2.7-4 2.7-7.3V20.1"></path>
  <path fill="#FFA515" d="M36.1 20.1v14.1c0 1.8.2 3.2.5 4.2.3.9.8 1.8 1.5 2.5l4.4-20.8"></path>
  <path d="M59.8 22h.4l.1.2.2.1.2-.1.1-.1-.1-.1-.2-.1c-.2 0-.3-.1-.4-.2l-.1-.3.1-.2.2-.2c.1 0 .2-.1.4-.1s.3 0 .4.1c.1.1.2.2.2.4h-.4l-.1-.2h-.3v.2l.2.1c.2 0 .3.1.4.1l.2.2.1.2-.4.2-.2.2-.4.1c-.3 0-.4-.1-.5-.2-.1-.1-.1-.2-.1-.3"></path>
  <path d="M61.3 20.9h.6l.3 1 .2-1h.6v1.6h-.4v-1.2l-.3 1.2H62l-.3-1.2v1.2h-.4"></path>
  <path fill="#44423E" d="M38.7 41.5c.8.7 1.8 1.3 3 1.6 1.4.5 3.2.7 5.4.7h.4l4.9-23.7h-3.3v14.5c0 .9-.2 1.7-.6 2.2-.4.5-.9.8-1.5.8-.7 0-1.2-.3-1.6-.8-.4-.5-.5-1.3-.5-2.3V20.1h-1.7l-4.5 21.4z"></path>
</svg>